<?xml version="1.0" standalone="no"?>
<!DOCTYPE svg PUBLIC "-//W3C//DTD SVG 20010904//EN"
 "http://www.w3.org/TR/2001/REC-SVG-20010904/DTD/svg10.dtd">
<svg version="1.0" xmlns="http://www.w3.org/2000/svg"
 width="991.000000pt" height="991.000000pt" viewBox="0 0 991.000000 991.000000"
 preserveAspectRatio="xMidYMid meet">
<metadata>
Created by potrace 1.11, written by Peter Selinger 2001-2013
</metadata>
<g transform="translate(0.000000,991.000000) scale(0.100000,-0.100000)"
fill="#000000" stroke="none">
<path d="M20 7100 c0 -33 -4 -60 -10 -60 -6 0 -10 -27 -10 -60 0 -33 4 -60 10
-60 6 0 10 -109 9 -300 0 -183 -4 -300 -9 -300 -6 0 -10 -27 -10 -60 0 -33 4
-60 10 -60 6 0 10 -27 10 -60 0 -33 -4 -60 -10 -60 -14 0 -12 -56 2 -80 11
-17 10 -22 -2 -30 -10 -6 -11 -10 -3 -10 10 0 13 -43 12 -180 0 -107 -4 -180
-9 -180 -6 0 -10 -27 -10 -60 0 -33 4 -60 10 -60 6 0 10 -67 9 -180 0 -107 -4
-180 -9 -180 -6 0 -10 -27 -10 -60 0 -33 4 -60 10 -60 6 0 9 -152 9 -420 0
-260 -4 -420 -9 -420 -6 0 -10 -27 -10 -60 0 -33 4 -60 10 -60 5 0 8 -39 8
-90 -1 -49 -5 -90 -10 -90 -4 0 -8 -13 -8 -30 0 -16 5 -30 10 -30 6 0 10 -27
10 -60 0 -33 -4 -60 -10 -60 -6 0 -10 -27 -10 -60 0 -33 4 -60 10 -60 6 0 10
-67 9 -180 0 -107 -4 -180 -9 -180 -6 0 -10 -27 -10 -60 0 -33 4 -60 10 -60 6
0 11 -66 13 -162 1 -90 4 828 5 2040 1 1211 0 2202 -3 2202 -3 0 -5 -27 -5
-60z"/>
<path d="M9875 4960 c0 -1213 1 -1709 2 -1103 2 607 2 1599 0 2205 -1 607 -2
111 -2 -1102z"/>
</g>
</svg>
