<svg id="Layer_1" data-name="Layer 1" xmlns="http://www.w3.org/2000/svg" viewBox="0 0 107.02 45.25"><defs><style>.cls-1{fill:#fbae20}</style></defs><title>logo_dark</title><path class="cls-1" d="M81.19 1.86a1.78 1.78 0 0 0-.19-.49v.31l-.05 6.61c0 .19-.08.26-.24.22s-.13-.14-.13-.24c0-.61 0-1.23-.06-1.84q-.06-1.64-.13-3.27 0-.75-.07-1.5a3.15 3.15 0 0 0 0-.33s0-.06-.08-.09-.08.05-.08.08a2.15 2.15 0 0 0 0 .33c0 .53 0 1.06-.06 1.59 0 1.61 0 3.21-.07 4.82a1.67 1.67 0 0 1 0 .31.17.17 0 0 1-.29.1.31.31 0 0 1-.08-.19v-.66q-.07-3.09-.15-6.18a.54.54 0 0 0 0-.15s0-.06-.06-.06a.1.1 0 0 0-.08 0 .88.88 0 0 0 0 .22q-.31 3.34-.43 6.55a3 3 0 0 1 0 .34c0 .09-.05.17-.16.16a.19.19 0 0 1-.19-.18 2.74 2.74 0 0 1 0-.34v-3c0-1.16-.07-2.33-.11-3.49a.59.59 0 0 0 0-.11c-.29 2.53-.5 5.09-.64 7.64v.58a3 3 0 0 0 .16 1.48 2.34 2.34 0 0 0 .35.51 2 2 0 0 0 2.62 0 2.84 2.84 0 0 0 .78-2.07l-.44-6.8c-.04-.28-.07-.57-.12-.86zM90.8 6.6a7.49 7.49 0 0 0-.33-2.26 4.66 4.66 0 0 0-2-2.73 2.77 2.77 0 0 0-2.63-.19 4.12 4.12 0 0 0-2.12 2.31 6.57 6.57 0 0 0-.56 2.86 7.51 7.51 0 0 0 .33 2.27 4.68 4.68 0 0 0 2 2.73 2.78 2.78 0 0 0 2.64.19 4.13 4.13 0 0 0 2.13-2.32 6.6 6.6 0 0 0 .56-2.91zm-6.41 2.76a5.9 5.9 0 0 1-.28-4.83 6.87 6.87 0 0 0 .47 4.53 6.68 6.68 0 0 0 2 2.44 5.51 5.51 0 0 1-2.19-2.14zM36 44c-7.51.06-12.44-4.53-12.33-4.12-.12.25 4.8 5.37 12.31 5.33 7.53.12 12.48-4.95 12.38-5.2.05-.38-4.9 4.14-12.36 3.99zM4.62 17.3V9.48h11.6v-4.2H0v28.29h4.62v-12h8.51A11.49 11.49 0 0 1 15 17.3zm66.05-.61a8.89 8.89 0 0 0-6.08-2.36 9.58 9.58 0 0 0-9.48 8.48 9.77 9.77 0 0 0-10-8.48 9.77 9.77 0 0 0-10 8.48 9.77 9.77 0 0 0-10-8.48 10.22 10.22 0 0 0-7.39 3 9.48 9.48 0 0 0-2.41 4.24 10.1 10.1 0 0 0-.34 2.59A9.76 9.76 0 0 0 25 33.95a9.77 9.77 0 0 0 10-8.48 9.77 9.77 0 0 0 10 8.48 9.77 9.77 0 0 0 10-8.48 9.58 9.58 0 0 0 9.48 8.48 8.89 8.89 0 0 0 6.08-2.36v2h4.48V0h-4.37zM25 29.8a5.66 5.66 0 1 1 5.66-5.66A5.59 5.59 0 0 1 25 29.8zm20.08 0a5.66 5.66 0 1 1 5.66-5.66 5.59 5.59 0 0 1-5.67 5.66zm20.08 0a5.66 5.66 0 1 1 5.66-5.66 5.61 5.61 0 0 1-5.67 5.66zm12.68-15.09h4.43v18.86h-4.43zm7.35 0h4.43v18.86h-4.43zm21.83 0h-15.7v3.96h8.49l-9.34 14.9h16.36v-3.96h-9.19l9.38-14.9z"/></svg>