<svg id="Layer_1" data-name="Layer 1" xmlns="http://www.w3.org/2000/svg" viewBox="0 0 95.67 78.52"><defs><style>.cls-1{fill:#5f6161}.cls-2{fill:#ebad21}.cls-3{fill:#4c4c4d}.cls-4{fill:#f8f07e}.cls-5{fill:#3f403f}</style></defs><title>calendar</title><path class="cls-1" d="M1.87 4.88h92.88v13H1.87z"/><path class="cls-2" d="M94.74 18.16H1.87v-13h13.54v8.13a.93.93 0 1 0 1.86 0V5.16H30.5v8.13a.93.93 0 1 0 1.86 0V5.16h14.55v8.13a.93.93 0 1 0 1.86 0V5.16H63.4v8.13a.93.93 0 0 0 1.86 0V5.16h13.23v8.13a.93.93 0 0 0 1.86 0V5.16h13.46v7.23a.93.93 0 1 0 1.86 0V4.23a.93.93 0 0 0-.93-.93H80.35V1.21a.93.93 0 1 0-1.86 0V3.3H65.26V1.21a.93.93 0 0 0-1.86 0V3.3H48.77V1.21a.93.93 0 1 0-1.86 0V3.3H32.36V1.21a.93.93 0 1 0-1.86 0V3.3H17.27V1.21a.93.93 0 1 0-1.86 0V3.3H.94a.93.93 0 0 0-.94.93v14.86a.93.93 0 0 0 .94.91h92.88v57.15H1.87V25.82a.93.93 0 1 0-1.86 0v52.12a.83.83 0 0 0 .82.83h94a.82.82 0 0 0 .81-.75V19.09a.93.93 0 0 0-.9-.93z" transform="translate(0 -.28)"/><path class="cls-3" d="M47.76 31.39a.93.93 0 0 0 .93-.93v-4.52a.93.93 0 1 0-1.86 0v4.53a.93.93 0 0 0 .93.92zm16.49 0a.93.93 0 0 0 .93-.93v-4.52a.93.93 0 1 0-1.86 0v4.53a.93.93 0 0 0 .93.92zm15.09 0a.93.93 0 0 0 .93-.93v-4.52a.93.93 0 1 0-1.86 0v4.53a.93.93 0 0 0 .93.92zm-47.98 0a.93.93 0 0 0 .93-.93v-4.52a.93.93 0 1 0-1.86 0v4.53a.93.93 0 0 0 .93.92zm15.43 11.85a.93.93 0 1 0 1.86 0v-4.53a.93.93 0 1 0-1.86 0zm16.49 0a.93.93 0 0 0 1.86 0v-4.53a.93.93 0 1 0-1.86 0zm15.09 0a.93.93 0 1 0 1.86 0v-4.53a.93.93 0 1 0-1.86 0zm-62.15.93a.93.93 0 0 0 .93-.93v-4.53a.93.93 0 1 0-1.86 0v4.53a.93.93 0 0 0 .93.93zm14.17-.93a.93.93 0 1 0 1.86 0v-4.53a.93.93 0 1 0-1.86 0zm16.37 12.54a.93.93 0 1 0 1.86 0v-4.53a.93.93 0 1 0-1.86 0zm19.01 0a.93.93 0 1 0 1.86 0v-4.53a.93.93 0 1 0-1.86 0zm-50.51 0a.93.93 0 1 0 1.86 0v-4.53a.93.93 0 1 0-1.86 0zm15.09 0a.93.93 0 1 0 1.86 0v-4.53a.93.93 0 1 0-1.86 0zm16.37 12.77a.93.93 0 1 0 1.86 0V64a.93.93 0 0 0-1.86 0zm-31.5 0a.93.93 0 1 0 1.86 0V64a.93.93 0 0 0-1.86 0zm15.09 0a.93.93 0 1 0 1.86 0V64a.93.93 0 0 0-1.86 0z" transform="translate(0 -.28)"/><circle class="cls-4" cx="65.89" cy="53.59" r="2.57"/><circle class="cls-5" cx="65.89" cy="53.59" r="4.53"/><circle class="cls-2" cx="65.89" cy="53.59" r="2.57"/><path class="cls-3" d="M77.51 55.36a.93.93 0 1 0 1.86 0v-4.53a.93.93 0 0 0-1.86 0z" transform="translate(0 -.28)"/></svg>