<svg id="Layer_1" data-name="Layer 1" xmlns="http://www.w3.org/2000/svg" viewBox="0 0 72.27 76.44"><defs><style>.cls-1{fill:#5f6161}.cls-1,.cls-2,.cls-3{fill-rule:evenodd}.cls-2{fill:none;stroke:#ebad21;stroke-miterlimit:10;stroke-width:1.1px}.cls-3{fill:#fff}</style></defs><title>enjoy</title><path class="cls-1" d="M61.28 42.84c-1.87.56-1.06 3.61.87 2.93 2.18-.75 2.93-3 2.37-5.11a9.53 9.53 0 0 0-1.25-2.8h-3.36c.19.68 2.75 4.49 1.37 5zm-8.48 0c-1.87.56-1 3.61.87 2.93 2.24-.75 2.93-3 2.43-5.11a11.58 11.58 0 0 0-1.31-2.8h-3.36c.25.68 2.81 4.49 1.37 5z" transform="translate(-12.07 -2.22)"/><path class="cls-2" d="M81.79 49.7a7.81 7.81 0 0 0-5.11-2.31H42.15a11 11 0 0 0-.25 2 22.22 22.22 0 0 1 3.8-.31h31a18.67 18.67 0 0 1 5.11.62zM59.41 68.27a17.54 17.54 0 0 0 13.84-6.73 7.46 7.46 0 0 0 3.18.68 7.38 7.38 0 0 0 7.36-7.42 7.6 7.6 0 0 0-.79-3.36 7.45 7.45 0 0 1-3.37.75 4.25 4.25 0 0 1 .87 2.62A4.17 4.17 0 0 1 76.43 59a4.6 4.6 0 0 1-1.37-.19 19.07 19.07 0 0 0 1.87-6.48H45.7a33.52 33.52 0 0 1-3.8-.19 17.58 17.58 0 0 0 17.51 16.13z" transform="translate(-12.07 -2.22)"/><path class="cls-1" d="M62.78 36.79c-.19-.56-.25-1.25.19-1.49 1.74-1.06.19-3.74-1.5-2.68a4 4 0 0 0-1.81 4.18zm-8.48 0c-.19-.56-.25-1.25.25-1.49 1.68-1.06.13-3.74-1.56-2.68a4 4 0 0 0-1.81 4.18z" transform="translate(-12.07 -2.22)"/><path class="cls-2" d="M66.98 67.37H29.02v2.86h4.42v2.93h29.11v-2.93h4.43v-2.86z"/><path class="cls-2" d="M33.66 74.16l-.37-25.66C41.7 47 48.13 38.32 47.9 28.06v-.22a13 13 0 0 0 11.67-8.1 11.82 11.82 0 0 0-.35-9.62 11.82 11.82 0 0 0-7-6.54 12.27 12.27 0 0 0-9.61.34 12.62 12.62 0 0 0-7.19 12.25l-19.66.25-.33.54a23.78 23.78 0 0 0-2.82 11.47C12.85 38.7 19.42 47.32 28 48.62l.15 25.55c-5 .34-8.73 1.22-8.73 2.09 0 1.09 5.24 1.85 11.47 1.84 6.44 0 11.68-1.11 11.68-2.09s-3.93-1.63-9-1.85z" transform="translate(-12.07 -2.22)"/><path class="cls-1" d="M26.59 23.83c-6-3.71-9.39-2.72-11.14-1.62A30.79 30.79 0 0 1 17 18.38L43.4 18a42.84 42.84 0 0 1 2 5.57c-.11 0-9.6 5.7-18.79.26zm-1.65-8.08H25a5.38 5.38 0 0 0 .21-2.29c0-3.39-3.07-6.11-5.36-3.82v.22c4 1.63 4 1.74 5 5.89z" transform="translate(-12.07 -2.22)"/><path class="cls-3" d="M47.78 25.43a2 2 0 0 0-.22-1.09 10.18 10.18 0 0 0 4.59-.88l-2.85-4.69-2.18 3.17v.22L44.38 16l1.2-.65-6.78-1.74a4.47 4.47 0 0 0 0 2.4l-1.2.12a10.26 10.26 0 0 1 6.1-10.28 10.05 10.05 0 0 1 13.44 5.23 10.31 10.31 0 0 1-5 13.55 10.35 10.35 0 0 1-4.37.77z" transform="translate(-12.07 -2.22)"/><path class="cls-1" d="M47.22 13.86L46 13.64l-3.73-6A8.59 8.59 0 0 0 39.13 12L46 13.64l.66 1-1 .77 1.21.11-.33 1.2 1-.54.66 1.09.44-1.2 1.09.11-.65-1 1-.65 7.32 1.63a11.11 11.11 0 0 0-1.1-5.57l-6.22 3.95-1.08-.25.32-1.09 6-3.94a7.9 7.9 0 0 0-4.4-3.16l-1.63 7.1-1.09.44-.65-1 1.52-6.88a9.32 9.32 0 0 0-5.24.77l3.72 6.11z" transform="translate(-12.07 -2.22)"/><path class="cls-1" d="M56.84 17.89l-7.11-1.73 3.95 6.32a8.58 8.58 0 0 0 3.16-4.59zm-28.96-6.18A2.2 2.2 0 0 0 28 10.5c0-1.64-1.53-3.05-2.73-1.85v.11c2.08.76 2.08.87 2.63 2.95zm24.49 11.52L48 17.39l-1 7.39a8.56 8.56 0 0 0 5.35-1.55z" transform="translate(-12.07 -2.22)"/></svg>