<svg xmlns="http://www.w3.org/2000/svg" viewBox="0 0 42.86 79.18"><defs><style>.cls-1{fill:none;stroke:#ebad21;stroke-linecap:round;stroke-linejoin:round;stroke-width:0.75px;fill-rule:evenodd;}.cls-2{font-size:7.26px;letter-spacing:-0.01em;}.cls-10,.cls-2,.cls-8{fill:#4c4c4d;font-family:BloggerSans, BloggerSans;}.cls-3{letter-spacing:-0.06em;}.cls-4{letter-spacing:-0.09em;}.cls-5{letter-spacing:-0.01em;}.cls-6{letter-spacing:-0.01em;}.cls-7{letter-spacing:-0.02em;}.cls-10,.cls-8{font-size:8.41px;}.cls-11,.cls-8{letter-spacing:0em;}.cls-9{letter-spacing:-0.01em;}.cls-10{letter-spacing:-0.03em;}</style></defs><title>Asset 1</title><g id="Layer_2" data-name="Layer 2"><g id="Layer_1-2" data-name="Layer 1"><path class="cls-1" d="M18.79,46.41H6.09l6.48,6.47L5.64,59.51H18.79L18.71,77s-.27.73.72,1.16a.62.62,0,0,0,.68,0c.3-.24,0-18.51,0-18.51"/><path class="cls-1" d="M23.31,46.41H36.14l6.35,6.47L36.14,59.6H23.31V76.37a1.74,1.74,0,0,1-.83,1.82,5.47,5.47,0,0,1-2,.62l-.2-19.13"/><path class="cls-1" d="M23.22,46.56V41.15l13.31-.37L30.3,34.62,36.41,28H23.22V23.14H36l6.35-6.78L36,9.83H23.22V3.42C23.22.84,23,1.33,22.71,1A3.23,3.23,0,0,0,19.62.6c-1.28.53-.92,1.22-.92,1.22v8l-12.31,0,6.08,6.49-6.55,6.7,12.78.09V28H6.85L.38,34.37,6.73,41l12,.12v5.41"/><text class="cls-2" transform="translate(13.19 55.19) scale(0.92 1)">New<tspan class="cls-3" x="13.43" y="0"> </tspan><tspan class="cls-4" x="14.52" y="0">Y</tspan><tspan class="cls-5" x="17.79" y="0">o</tspan><tspan class="cls-6" x="21.67" y="0">r</tspan><tspan class="cls-7" x="23.96" y="0">k</tspan></text><text class="cls-8" transform="translate(14.71 18.54)">R<tspan class="cls-9" x="4.5" y="0">ome</tspan></text><text class="cls-10" transform="translate(10.38 37.09)">P<tspan class="cls-9" x="4.2" y="0">a</tspan><tspan class="cls-11" x="8.19" y="0">r</tspan><tspan class="cls-9" x="10.92" y="0">is</tspan></text></g></g></svg>